<?xml version="1.0" encoding="UTF-8"?>
<svg id="Layer_2" data-name="Layer 2" xmlns="http://www.w3.org/2000/svg" viewBox="0 0 422.45 340.18">
  <defs>
    <style>
      .cls-1 {
        stroke-width: 0px;
      }
    </style>
  </defs>
  <g id="a">
    <path class="cls-1" d="m392.28,339.02c7.47-2.35,17.58-11.66,21.77-16.86,5.06-7.17,8.48-15.77,8.39-24.63-.59-20.14-9.41-40.53-24.64-53.9-2.23-1.83-4.91-3.37-7.77-4.41,5.3-7.37,6.17-16.78,6.96-25.58.11-20.32-11.94-45.93-31.43-54.09.09-.14.18-.26.25-.39,3.47-4.95,7.43-9.96,7.94-16.23.96-13.88-6.11-28.44-11.87-40.8-4.17-7.77-9.42-15.34-16.91-20.25-1.68-1-3.45-1.94-5.28-2.77,4.74-5.42,7.44-12.45,6.84-19.81-2.45-21.61-13.96-43.37-33.65-53.78-6.42-3.74-15.63-6.97-23.07-4.85-1.82-.52-3.82-.61-5.7-.13-6.57,1.03-10.2,7.25-15.24,10.96-10.04,8.3-20.62,15.95-30.88,23.98-15.93,13.1-32.49,27.36-49.11,40.59-18.57,16.23-35.34,34.31-51.76,52.67-10.7,11.44-22.79,21.61-33.18,33.32-.7-.29-1.47-.49-2.33-.58-2.25-.37-4.7-.1-6.97.71-2.45-1.56-5.99-2.13-10.18-.88-22.96,7.34-50.26,10.03-66.86,29.32-8.14,9.45-12.25,21.36-14.38,33.5-2.53,11.62-4.54,23.73-2.13,35.54,3.44,17.09,14.89,34.92,26.8,47.47,13.08,14.02,32.08,19.55,50.86,17.88,12.89-.59,25.64-3.32,37.92-7.16,6.96-2.72,18.73-4.27,23.55-10.45,10.27,2.45,24.2,2.37,29.49,3.32,16.11,1.95,32.26,3.24,48.45,4.34,19.87,1.9,39.34,6.52,59.14,8.9,21.99,1.67,43.74,4.95,65.43,8.81,11.72,1.65,23.27,4.3,34.95,6.29,4.82.8,10.04,2.08,14.61-.07v.02Zm-43.02-163.81c6.33,2.12,11.09,7.1,14.88,12.43,4.84,8.52,9.54,17.79,10.05,27.73-.51,5.95.11,12.92-3.6,17.93-2.34,2.87-6.08,5.27-8.32,8.36-6.9,1.4-13.87,2.45-20.83,3.42-21.99,2.92-44.3,2.17-66.26,5.4-17.22,2.09-34.09,6.15-51.14,9.22-15.71,2.86-31.6,4.26-47.55,4.67-9.99.46-19.98.71-29.96,1.37-2.54.13-5.39,1.24-7.49,3.04-.79-2.27-1.58-4.54-2.37-6.81-2.45-7.06-4.75-14.18-6.94-21.32.96-.07,1.99-.24,3.07-.55,15.85-5.14,31.77-11.41,47.9-16.13,20.35-6.03,41.11-10.58,61.42-16.77,15.91-5.01,31.5-11.01,47.45-15.91,18.28-5.86,37.42-9.99,55.17-17.38.13.03.24.08.37.1,1.4.36,2.78.77,4.15,1.23h0Zm-12.03-68.04c6.14,10.01,11.08,20.88,14.05,32.26,1.69,5.52-1.82,9.86-4.91,14.03-.14.28-.24.56-.36.83-20.76,7.39-42.04,13.48-62.96,20.51-18.46,6.84-37.06,13.22-55.77,19.35-15.81,5.54-31.48,11.44-47.39,16.7-17.01,5.72-34.37,9.52-51.59,14.59-1.01.34-1.91.76-2.71,1.2-1.94-6.74-3.81-13.49-5.66-20.26,25.12-13.71,47.92-33.41,73.95-45.99,22.17-9.93,42.94-22.58,65.22-32.27,18.31-7.63,34.37-19.31,51.82-28.56,3.46-1.7,6.1-3.47,8.08-5.23.3-.08.59-.18.9-.28,7.57.96,13.3,6.95,17.34,13.13h0Zm-160.05.86c25.35-19.58,49.68-40.49,75.17-59.88,10.27-7.46,20.61-14.86,30.34-23.02,2.43-2.18,4.98-4.34,7.31-6.69.59.09,1.19.16,1.8.2,17.41,7.23,27.99,24.34,31.96,42.19.78,3.96.59,8.63-2.95,11.21-1.67,1.49-4.18,3.23-6.63,5.14-.2.08-.41.15-.61.24-1.12.48-2.1,1.04-2.94,1.66-1.19.32-2.42.79-3.66,1.43-4.32,2.76-8.91,5.02-13.47,7.35-10.03,5.11-19.12,11.82-28.91,17.36-22.37,12.05-45.52,22.61-67.6,35.22-11.91,6.31-22.78,14.28-33.72,22.09-15.33,10.4-30.72,20.8-47.41,28.87-.85-3.09-1.69-6.19-2.54-9.28-.16-.41-.3-.85-.44-1.3.78-.58,1.48-1.25,2.05-1.99,3.52-4.56,7.16-9,10.63-13.58,7.35-9.7,14.89-19.27,23.08-28.28,8.87-10.27,18.03-20.33,28.56-28.94Zm-97.24,198.19c-22.22,7.27-40.79-4.81-50.72-24.57-7.43-12.75-9.75-27.64-6.99-42.1,2.64-12.27,2.79-25.86,10.4-36.38,4.05-6.22,10.35-10.12,17.25-12.54,12.41-4.55,25.48-7.13,37.84-11.79,1.41,6.76,3.28,13.45,5,20.15,6.37,22.83,14.33,45.18,21.94,67.62,2.84,8.86,5.89,17.64,8.98,26.41-3.16.86-6.21,2-8.77,2.85-11.52,3.87-23.16,7.33-34.92,10.34h0Zm215.8,1.61c-30.46-4.11-61.18-5.05-91.81-7.16-17.05-1.65-33.34-7.27-50.08-10.56-2.79-1.04-5.57-2-8.25-2.54-.72-2.05-1.43-4.1-2.14-6.15,3.95.4,8.64-.44,11.91-.66,12.86-1.65,25.7-3.34,38.63-4.3,28.49-2.08,56.99-4.46,85.17-9.27,18.37-2.05,36.96-.94,55.37-2.67,11.49-1.18,23.01-2.81,34.22-5.64,2.52-.76,5.68-1.6,8.59-2.84.45.22.87.51,1.29.8,6.99,6.28,12.09,14.35,15.73,22.95,4.9,11.95,9.42,28.28-1.64,38.19-1.25,1.27-2.79,2.37-4.38,3.44-30.33-7.31-61.57-10.64-92.6-13.59h0Z"/>
  </g>
</svg>