<?xml version="1.0" encoding="UTF-8"?>
<svg id="Layer_2" data-name="Layer 2" xmlns="http://www.w3.org/2000/svg" viewBox="0 0 442.76 396.57">
  <defs>
    <style>
      .cls-1 {
        stroke-width: 0px;
      }
    </style>
  </defs>
  <g id="a">
    <path class="cls-1" d="m193.25,3.97c-7.37-3.84-21.94-4.44-28.99-3.69-9.17,1.59-18.2,5.47-24.78,12.18-14.67,15.55-23.35,37.47-21.95,58.92.3,3.04,1.16,6.21,2.52,9.14-9.5,1.55-17.21,7.96-24.41,13.97-15.33,15.16-25.5,43.42-17,64.16-.17.04-.33.06-.49.11-6.32,1.1-13.05,1.9-18.13,6.22-11.13,9.69-16.76,25.92-21.7,39.52-2.7,8.96-4.45,18.58-2.51,27.88.51,2.01,1.13,4.04,1.89,6.04-7.62.51-14.93,3.76-20,9.73-14.37,18.06-22.07,43.01-15.1,65.6,2.01,7.62,6.5,16.95,13.67,20.95.97,1.76,2.41,3.32,4.18,4.37,5.7,4.16,13.09,2.22,19.66,3.21,13.77,1.3,27.44,3.5,41.16,5.18,21.78,2.13,44.9,3.85,67.29,6.39,26.11,1.75,52.26.77,78.35-.68,16.61-.55,33.31.88,49.89-.1.31.74.74,1.47,1.31,2.19,1.4,1.96,3.46,3.6,5.76,4.7.67,3.01,2.9,6.09,6.98,8.3,22.73,11.72,45.24,30.18,72.16,28.16,13.2-.98,25.22-6.84,35.92-14.35,10.62-6.82,21.21-14.4,28.26-25.07,10.23-15.4,15.03-37.37,15.51-55.72.7-20.33-9.4-38.73-24.75-51.57-10.12-9.23-21.72-16.74-33.82-23.08-7.26-3.18-17.26-10.85-25.51-9.83-5.87-9.55-16.38-19.94-19.63-24.61-10.63-13.55-21.78-26.64-33.1-39.61-13.48-16.33-24.62-34.41-37.69-51.04-15.24-17.75-29.1-36.53-42.48-55.7-7.56-10.03-14.23-20.69-21.5-30.94-3.02-4.22-5.97-9.1-11.01-10.91h.02Zm-90.62,155.18c-3.16-6.34-2.99-13.65-1.84-20.48,2.76-10.02,6.19-20.5,13.27-28.35,4.85-4.08,9.61-9.77,16.15-10.75,3.91-.4,8.51.61,12.51-.03,6.22,4.13,12.25,8.57,18.19,13.07,18.69,14.3,34.87,31.61,53.76,45.66,14.49,11.35,30.19,20.96,45.29,31.45,13.93,9.64,26.9,20.51,39.18,32.17,7.84,7.15,15.52,14.46,23.5,21.45,2.01,1.81,4.97,3.11,7.9,3.34-1.11,2.3-2.22,4.59-3.34,6.89-3.46,7.14-7.08,14.2-10.79,21.2-.78-.67-1.67-1.31-2.71-1.89-15.75-8.04-32.4-15.27-48.04-23.83-19.79-10.75-38.78-22.91-58.66-33.5-15.69-8.18-31.9-15.37-47.54-23.66-18.12-9.32-35.57-20.58-54.43-28.35-.07-.12-.12-.24-.2-.35-.78-1.32-1.51-2.66-2.19-4.03h0Zm-42.02,60.08c2.9-12.12,7.35-23.98,13.66-34.74,2.87-5.41,8.77-6.03,14.21-6.84.32-.1.6-.24.89-.36,21.12,10.03,41.65,21.43,62.62,31.85,18.98,8.72,37.73,17.88,56.36,27.33,16.02,7.7,32.21,15.04,48.09,23.02,17.05,8.47,32.93,18.64,49.65,27.76,1.01.5,2,.86,2.93,1.13-3.6,6.51-7.26,12.98-10.95,19.45-29.14-8.56-61.02-10.88-89.99-20.98-24.08-9.18-49.16-15.28-73.15-24.72-19.46-8.01-40.28-11.3-60.31-17.45-3.87-1.32-7.18-1.97-9.99-2.14-.29-.16-.58-.31-.88-.47-4.95-6.4-4.76-15.19-3.16-22.86h0Zm120.73,119.44c-33.72-4.33-67.65-6.9-101.32-11.47-13.3-2.11-26.61-4.32-40.03-5.5-3.46-.19-6.99-.48-10.5-.46-.37-.51-.77-1.02-1.2-1.5-7.64-18.48-2.74-39.26,7.68-55.63,2.39-3.56,6.03-6.92,10.63-6.19,2.37.13,5.56.71,8.83,1.12.21.09.42.2.63.28,1.21.48,2.35.79,3.45.96,1.13.66,2.41,1.23,3.82,1.67,5.31,1.17,10.45,2.91,15.62,4.59,11.36,3.69,23.21,5.47,34.71,8.67,25.82,7.75,51.11,17.19,77.14,24.29,13.67,4.21,27.8,6.37,41.87,8.73,19.3,3.7,38.66,7.44,57.23,13.91-1.69,2.95-3.37,5.91-5.05,8.87-.19.43-.41.87-.65,1.31-1.02-.14-2.04-.18-3.03-.04-6.06.78-12.12,1.38-18.16,2.22-12.8,1.76-25.63,3.28-38.53,3.9-14.36,1.05-28.78,1.72-43.14.28Zm221.65-75.74c22.13,11.21,26.99,34.21,19.62,56.49-3.99,15.14-13.42,28.05-26.34,36.83-11.19,7.23-21.5,17.31-35.1,19.49-7.7,1.63-15.36-.18-22.35-3.53-12.72-5.9-24.46-13.77-37.23-19.55,4.01-6.14,7.63-12.55,11.36-18.87,12.35-21.91,23.15-44.65,34.28-67.19,4.52-8.78,8.81-17.66,13.08-26.56,3.02,1.72,6.16,3.15,8.72,4.44,11.55,5.74,22.87,11.88,33.96,18.44h0ZM242.28,99.8c19.77,25.94,42.11,49.69,63.51,74.25,11.55,14.03,19.56,30.47,29.65,45.5,1.31,2.87,2.68,5.68,4.28,8.1-1,2.08-2,4.15-3.01,6.23-2.66-3.26-6.81-6.16-9.43-8.44-10.88-8.41-21.79-16.78-32.21-25.76-22.94-19.82-46.1-39.42-70.86-56.95-15.32-12.25-28.44-27.02-43.55-39.55-9.5-7.74-19.38-15.15-29.91-21.44-2.46-1.32-5.46-3.06-8.58-4.32-.17-.51-.27-1.03-.37-1.57-.53-9.95,1.7-19.84,5.42-29.02,5.29-12.64,14.15-28.29,29.88-27.42,1.89-.02,3.87.32,5.87.71,17.27,28.25,38.21,54.18,59.28,79.67h0Z"/>
  </g>
</svg>