<?xml version="1.0" encoding="UTF-8"?>
<svg id="Layer_2" data-name="Layer 2" xmlns="http://www.w3.org/2000/svg" viewBox="0 0 21.79 20">
  <defs>
    <style>
      .cls-1 {
        fill: #efc271;
      }

      .cls-1, .cls-2 {
        stroke-width: 0px;
      }

      .cls-2 {
        fill: #ffd591;
      }
    </style>
  </defs>
  <g id="Layer_1-2" data-name="Layer 1">
    <g>
      <path class="cls-2" d="m2.6.85L.06,19.66s4.05,2.37,13.77-6.49C23.55,4.31,21.57.06,21.57.06L2.6.85Z"/>
      <g>
        <path class="cls-1" d="m13.91,13.17l-.04.04c-.39.35-.79.71-1.28,1.12l-.05.04-.04-.05L2.56.88l.09-.07,11.26,12.36Zm-1.34,1.04c.44-.38.82-.71,1.19-1.04L3.3,1.7l9.26,12.51Z"/>
        <path class="cls-1" d="m10.17,16.26l-.04.03c-.46.34-.91.65-1.33.93l-.06.04L2.55.87l.1-.04,7.51,15.43Zm-1.37.82c.39-.26.8-.54,1.23-.86L3.09,1.97l5.71,15.11Z"/>
        <path class="cls-1" d="m12.63,14.3l-.04.03c-.42.36-.81.68-1.17.97l-.05.04-.03-.05L2.56.88l.09-.06,9.98,13.48Zm-1.23.88c.34-.27.69-.56,1.08-.89L3.3,1.88l8.1,13.29Z"/>
        <path class="cls-1" d="m7.42,18.07l-.04.02c-.54.31-1.06.58-1.55.8l-.07.03L2.55.86l.11-.02,4.76,17.23Zm-1.57.69c.46-.21.94-.46,1.44-.75L2.87,2.02l2.99,16.74Z"/>
        <path class="cls-1" d="m11.46,15.27l-.04.03c-.42.34-.84.66-1.29.99l-.05.04-.03-.06L2.55.87l.1-.05,8.81,14.45Zm-1.34.89c.41-.3.8-.6,1.2-.92L3.17,1.89l6.95,14.27Z"/>
        <path class="cls-1" d="m8.84,17.19l-.04.02c-.48.32-.96.61-1.42.88l-.06.04-.02-.07L2.55.86l.11-.03,6.18,16.36Zm-1.45.77c.43-.25.87-.52,1.31-.81L2.98,2.01l4.41,15.95Z"/>
        <path class="cls-1" d="m2.69,19.91h-.05c-.57.09-1.09.11-1.56.07h-.05s0-.06,0-.06L2.55.85h.11s.03,19.06.03,19.06Zm-1.54-.04c.43.04.91.02,1.43-.06l-.02-17.58-1.41,17.64Z"/>
        <path class="cls-1" d="m1.13,19.98h-.06c-.7-.08-1.03-.27-1.04-.27l-.03-.02v-.04S2.55.84,2.55.84h.11s-1.53,19.14-1.53,19.14Zm-1.01-.35c.09.05.39.17.91.23L2.39,2.88.12,19.63Z"/>
        <path class="cls-1" d="m5.88,18.88l-.04.02c-.61.28-1.21.51-1.78.69l-.07.02v-.07S2.55.85,2.55.85h.11s3.22,18.02,3.22,18.02Zm-1.79.58c.53-.17,1.09-.38,1.66-.65L2.75,1.96l1.34,17.49Z"/>
        <path class="cls-1" d="m4.1,19.57h-.04c-.5.17-.97.28-1.42.35h-.06s-.03-19.07-.03-19.07h.11s1.44,18.72,1.44,18.72Zm-1.41.22c.41-.07.84-.17,1.3-.31L2.66,2.33l.02,17.46Z"/>
        <path class="cls-1" d="m19.3,7.24l-.04-.02L2.58.9l.03-.11,17.69,4.88-.04.06c-.27.47-.59.96-.94,1.47l-.02.04ZM3.75,1.22l15.52,5.88c.33-.47.62-.92.88-1.36L3.75,1.22Z"/>
        <path class="cls-1" d="m21.11,4.07h-.04S2.59.9,2.59.9v-.11s19.01,1.79,19.01,1.79l-.02.06c-.11.44-.26.9-.46,1.38l-.02.04ZM4.08,1.04l16.96,2.9c.18-.44.32-.86.42-1.26L4.08,1.04Z"/>
        <path class="cls-1" d="m21.57,2.69h-.05S2.6.91,2.6.91v-.11s19.19.25,19.19.25v.05c0,.47-.06.99-.2,1.55v.05ZM3.98.92l17.5,1.65c.12-.51.19-.99.19-1.42L3.98.92Z"/>
        <path class="cls-1" d="m20.25,5.77h-.04S2.59.9,2.59.9l.02-.11,18.54,3.17-.03.06c-.23.55-.51,1.13-.85,1.71l-.02.04ZM3.7,1.09l16.5,4.55c.31-.54.58-1.08.8-1.59L3.7,1.09Z"/>
        <path class="cls-1" d="m21.79,1.15h-.06S2.6.91,2.6.91v-.11s19-.79,19-.79l.02.03s.16.36.17,1.06v.06ZM4.65.82l17.03.22c-.01-.52-.11-.83-.15-.93L4.65.82Z"/>
        <path class="cls-1" d="m15.06,12.08l-.04-.03L2.57.89l.07-.09,13.58,10.12-.04.05c-.32.33-.67.69-1.07,1.07l-.04.04ZM3.57,1.64l11.49,10.29c.36-.35.69-.68.99-.99L3.57,1.64Z"/>
        <path class="cls-1" d="m18.3,8.57l-.04-.02L2.58.9l.04-.1,16.75,6.35-.04.06c-.31.44-.64.88-1,1.33l-.03.03ZM3.72,1.33l14.54,7.1c.33-.41.64-.83.93-1.23L3.72,1.33Z"/>
        <path class="cls-1" d="m13.87,13.21l-.04.04L2.56.89l.08-.08,12.5,11.19-.04.04c-.46.44-.85.81-1.24,1.17ZM3.39,1.62l10.45,11.46c.36-.33.73-.68,1.15-1.08L3.39,1.62Z"/>
        <path class="cls-1" d="m16.14,11l-.04-.03L2.57.89l.06-.09,14.69,8.92-.04.05c-.37.41-.73.81-1.1,1.19l-.03.04ZM3.59,1.51l12.54,9.34c.35-.36.68-.72,1.02-1.11L3.59,1.51Z"/>
        <path class="cls-1" d="m17.25,9.81l-.04-.02L2.57.9l.05-.1,15.74,7.68-.04.05c-.31.39-.67.81-1.05,1.24l-.03.03ZM3.68,1.44l13.55,8.23c.35-.4.68-.78.97-1.14L3.68,1.44Z"/>
      </g>
    </g>
  </g>
</svg>