<?xml version="1.0" ?><svg id="Layer_1" style="enable-background:new 0 0 256 256;" version="1.1" viewBox="0 0 256 256" xml:space="preserve" xmlns="http://www.w3.org/2000/svg" xmlns:xlink="http://www.w3.org/1999/xlink"><style type="text/css">
	.st0{fill:none;stroke:#ffffff;stroke-width:8;stroke-linejoin:round;stroke-miterlimit:10;}
	.st1{fill:none;stroke:#ffffff;stroke-width:8;stroke-miterlimit:10;}
	.st2{fill:none;stroke:#ffffff;stroke-width:8;stroke-miterlimit:10;stroke-dasharray:16,16;}
	.st3{fill:none;stroke:#ffffff;stroke-width:8;stroke-linecap:round;stroke-linejoin:round;stroke-miterlimit:10;}
</style><g><g><path class="st0" d="M227.99,100.189c-19.918,19.918-55.071,29.83-78.515,6.386s-13.532-58.597,6.386-78.515    s55.071-29.83,78.515-6.386S247.908,80.271,227.99,100.189z"/><line class="st0" x1="149.792" x2="79.991" y1="106.892" y2="176.693"/><polygon class="st0" points="26.902,247.951 8,229.049 63.612,173.437 84.014,171.937 82.514,192.339   "/><g><line class="st0" x1="216.523" x2="137.981" y1="9.692" y2="88.234"/><line class="st0" x1="244.392" x2="165.85" y1="37.562" y2="116.103"/></g><g><line class="st0" x1="239.325" x2="173.451" y1="83.166" y2="17.293"/><line class="st0" x1="208.922" x2="143.048" y1="113.57" y2="47.696"/></g></g><g><path class="st0" d="M28.01,100.189c19.918,19.918,55.071,29.83,78.515,6.386s13.532-58.597-6.386-78.515    s-55.071-29.83-78.515-6.386S8.092,80.271,28.01,100.189z"/><line class="st0" x1="106.208" x2="176.009" y1="106.892" y2="176.693"/><polygon class="st0" points="229.098,247.951 248,229.049 192.388,173.437 171.986,171.937 173.486,192.339   "/><g><line class="st0" x1="39.477" x2="118.019" y1="9.692" y2="88.234"/><line class="st0" x1="11.608" x2="90.15" y1="37.562" y2="116.103"/></g><g><line class="st0" x1="16.675" x2="82.549" y1="83.166" y2="17.293"/><line class="st0" x1="47.078" x2="112.952" y1="113.57" y2="47.696"/></g></g></g></svg>