<?xml version="1.0" encoding="UTF-8"?>
<svg id="Layer_2" data-name="Layer 2" xmlns="http://www.w3.org/2000/svg" viewBox="0 0 27.8 26.67">
  <defs>
    <style>
      .cls-1 {
        fill: #fdf2e8;
      }

      .cls-1, .cls-2, .cls-3, .cls-4, .cls-5, .cls-6, .cls-7, .cls-8, .cls-9, .cls-10, .cls-11 {
        stroke-width: 0px;
      }

      .cls-12 {
        opacity: .35;
      }

      .cls-13 {
        opacity: .5;
      }

      .cls-2 {
        fill: #f6d2b6;
      }

      .cls-3 {
        fill: #f1904a;
      }

      .cls-4 {
        fill: #ed7d81;
      }

      .cls-14 {
        opacity: .15;
      }

      .cls-5 {
        fill: #fff;
      }

      .cls-15 {
        opacity: .3;
      }

      .cls-6 {
        fill: #252468;
      }

      .cls-7 {
        fill: #f7dbc6;
      }

      .cls-8 {
        fill: #dcdbee;
      }

      .cls-9 {
        fill: #ed1b6a;
      }

      .cls-10 {
        fill: #502819;
      }

      .cls-11 {
        fill: #f6a942;
      }
    </style>
  </defs>
  <g id="Layer_1-2" data-name="Layer 1">
    <g>
      <g>
        <g>
          <path class="cls-11" d="m20.4,16.02s1.67,3.01,3.73,3.23c4.08.45,4.57-4.85,1.65-6.13-1.74-.77-3.37.69-2.72,2.1.17.38.53.68.75.62.25-.07.11-.51.44-.63.24-.09.42.14.45.38.11,1.07-1.81,2.19-3.37-.12"/>
          <path class="cls-11" d="m24.12,19.25c-2.05-.23-3.73-3.23-3.73-3.23l.92-.56c.41.62.85.99,1.28,1.19,1.16.54,2.17-.28,2.09-1.06-.02-.24-.21-.47-.45-.38-.33.12-.19.57-.44.63-.22.06-.58-.24-.75-.62-.02-.04-.03-.07-.05-.11-.51-1.38,1.07-2.74,2.77-1.99,2.92,1.28,2.43,6.58-1.65,6.13"/>
          <path class="cls-11" d="m24.12,19.25c-2.05-.23-3.73-3.23-3.73-3.23l.92-.56c.41.62.85.99,1.28,1.19.58.27,1.12.2,1.5-.03.39-.23.63-.64.59-1.03-.02-.24-.21-.47-.45-.38-.33.12-.19.57-.44.63-.22.06-.58-.24-.75-.62-.02-.04-.03-.07-.05-.11-.01-.03-.02-.07-.03-.1-.4-1.34,1.15-2.62,2.8-1.89,2.92,1.28,2.43,6.58-1.65,6.13"/>
          <path class="cls-11" d="m24.12,19.25c-2.05-.23-3.73-3.23-3.73-3.23l.92-.56c.41.62.85.99,1.28,1.19.58.27,1.12.2,1.5-.03.39-.23.63-.64.59-1.03-.02-.24-.21-.47-.45-.38-.33.12-.19.57-.44.63-.22.06-.58-.24-.75-.62-.02-.04-.03-.07-.05-.11-.01-.03-.02-.07-.03-.1-.4-1.34,1.15-2.62,2.8-1.89,2.92,1.28,2.43,6.58-1.65,6.13"/>
          <path class="cls-11" d="m27.44,14.98c.68,1.99-.41,4.59-3.32,4.27-2.05-.23-3.73-3.23-3.73-3.23l.92-.56c.41.62.85.99,1.28,1.19.09.04.17.07.26.1.48.15.92.07,1.25-.13.39-.23.63-.64.59-1.03-.02-.24-.21-.47-.45-.38-.33.12-.19.57-.44.63-.22.06-.58-.24-.75-.62-.02-.04-.03-.07-.05-.11-.01-.03-.02-.07-.03-.1-.4-1.34,1.15-2.62,2.8-1.89.84.37,1.4,1.07,1.67,1.87"/>
          <path class="cls-3" d="m24.09,16.62s0,0,0,0c.39-.23.63-.64.59-1.03-.02-.24-.21-.47-.45-.38-.33.12-.19.57-.44.63-.22.06-.58-.24-.75-.62-.02-.04-.03-.07-.05-.11-.01-.03-.02-.07-.03-.1.11.27.47.62.66.38.14-.18.39-1.21,1.12-.79.54.31.42,1.77-.66,2.03"/>
          <path class="cls-3" d="m27.44,14.98c.68,1.99-.41,4.59-3.32,4.27-2.05-.23-3.73-3.23-3.73-3.23l.92-.56c.41.62.85.99,1.28,1.19.09.04.17.07.26.1.47.89,1.27,1.34,2.37,1.22,1.7-.18,2.41-1.73,2.22-2.99"/>
          <path class="cls-2" d="m27.44,14.98c.68,1.99-.41,4.59-3.32,4.27-2.05-.23-3.73-3.23-3.73-3.23l.92-.56c.41.62.85.99,1.28,1.19.35.6.97,1.66,2.17,1.58.6-.04,1.03-.23,1.34-.51,1.06-.52,1.49-1.73,1.34-2.74"/>
          <path class="cls-5" d="m24.12,19.25c-2.05-.23-3.73-3.23-3.73-3.23l.92-.56c.41.62.85.99,1.28,1.19.35.6.97,1.66,2.17,1.58,2.49-.15,2.23-2.99,1.11-4.02-.91-.83-2.79-.61-2.87.89-.51-1.38,1.07-2.74,2.77-1.99,2.92,1.28,2.43,6.58-1.65,6.13"/>
          <g class="cls-14">
            <path class="cls-6" d="m27.44,14.98c.68,1.99-.41,4.59-3.32,4.27-2.05-.23-3.73-3.23-3.73-3.23l.92-.56c.41.62.85.99,1.28,1.19.35.6.97,1.66,2.17,1.58.6-.04,1.03-.23,1.34-.51,1.06-.52,1.49-1.73,1.34-2.74"/>
          </g>
          <path class="cls-6" d="m26.07,19.14c-.56.27-1.23.36-1.96.28-2.12-.23-3.79-3.2-3.86-3.32-.05-.09-.02-.19.06-.24.08-.05.18-.02.23.07.02.03,1.65,2.93,3.59,3.14,2.02.22,3.01-1,3.26-2.22.27-1.29-.23-2.93-1.68-3.57-.95-.42-1.83-.11-2.27.38-.38.42-.47.98-.24,1.48.15.34.44.55.55.52.03,0,.04-.05.07-.16.04-.15.1-.38.36-.47.14-.05.28-.03.41.05.14.1.25.29.27.49.05.55-.34,1.11-.94,1.33-.34.12-1.56.4-2.73-1.34-.05-.08-.04-.19.04-.24.07-.05.18-.03.23.05,1.03,1.53,2.05,1.31,2.34,1.2.46-.17.77-.57.73-.97,0-.09-.05-.18-.11-.22-.02-.01-.05-.03-.11-.01-.09.03-.11.1-.15.25-.04.14-.09.34-.3.39-.34.09-.76-.3-.95-.72-.29-.64-.18-1.34.29-1.87.52-.58,1.54-.95,2.64-.46,1.63.72,2.19,2.55,1.89,3.99-.16.77-.56,1.44-1.13,1.89-.16.12-.33.23-.52.32Z"/>
          <path class="cls-5" d="m16.25,11.34c2.27-.37,5.6.15,6.49,3.4.89,3.23-2.25,4.83-4.56,4.37-1.79-.36-6.57-5.12-6.05-5.71.52-.59,1.85-1.69,4.12-2.06"/>
          <path class="cls-5" d="m22.74,14.74c.89,3.23-2.25,4.83-4.56,4.37-.62-.12-1.59-.77-2.58-1.59-1.88-1.56-3.81-3.73-3.47-4.12.52-.59,1.85-1.69,4.12-2.06.63-.1,1.35-.14,2.08-.06,1.86.2,3.77,1.12,4.41,3.46"/>
          <path class="cls-5" d="m22.74,14.74c.2.72.2,1.36.05,1.91-.44,1.63-2.15,2.52-3.75,2.54-.29,0-.58-.02-.86-.08-.62-.12-1.59-.77-2.58-1.59-1.88-1.56-3.81-3.73-3.47-4.12.52-.59,1.85-1.69,4.12-2.06.63-.1,1.35-.14,2.08-.06,1.86.2,3.77,1.12,4.41,3.46"/>
          <path class="cls-11" d="m22.74,14.74c.2.72.2,1.36.05,1.91-.44,1.63-2.15,2.52-3.75,2.54-.29,0-.58-.02-.86-.08-.62-.12-1.59-.77-2.58-1.59-1.88-1.56-3.81-3.73-3.47-4.12.52-.59,1.85-1.69,4.12-2.06.63-.1,1.35-.14,2.08-.06,1.86.2,3.77,1.12,4.41,3.46"/>
          <path class="cls-11" d="m22.74,14.74c.2.72.2,1.36.05,1.91-.44,1.63-2.15,2.52-3.75,2.54-.29,0-.58-.02-.86-.08-.62-.12-1.59-.77-2.58-1.59-.84-.7-1.7-1.52-2.35-2.26-.8-.9-1.3-1.65-1.12-1.86.52-.59,1.85-1.69,4.12-2.06.63-.1,1.35-.14,2.08-.06.04,0,.07,0,.11.01,1.83.22,3.68,1.15,4.31,3.44"/>
          <path class="cls-3" d="m18.43,11.29c.03.95-.18,1.94-.91,2.73-1.24,1.34-3.28,1.33-4.28,1.23-.8-.9-1.3-1.65-1.12-1.86.52-.59,1.85-1.69,4.12-2.06.63-.1,1.35-.14,2.08-.06.04,0,.07,0,.11.01"/>
          <path class="cls-3" d="m22.81,16.57s-.01.05-.02.08c-.44,1.63-2.15,2.52-3.75,2.54-.29,0-.58-.02-.86-.08-.62-.12-1.59-.77-2.58-1.59-1.88-1.56-3.81-3.73-3.47-4.12.27-.31.59-.14,1.31-.55.35.78-.07,2.46,3.86,3,1.83.14,1.41,1.51,3.42,1.51.65,0,1.61-.28,2.09-.79"/>
          <path class="cls-3" d="m22.81,16.57s-.01.05-.02.08c-.02.09-.05.17-.08.25-.54,1.48-2.15,2.27-3.67,2.29-.29,0-.58-.02-.86-.08-.62-.12-1.59-.77-2.58-1.59-1.3-1.08-2.63-2.46-3.21-3.33-.26-.38-.36-.67-.26-.79.27-.31.59-.14,1.31-.55.35.78-.07,2.46,3.86,3,.93.07,1.28.46,1.66.83.35.33.72.64,1.58.68.06,0,.37-1.1.42-1.14.44-.29,1.37.86,1.84.35"/>
          <path class="cls-8" d="m22.71,16.9c-.54,1.47-2.15,2.27-3.67,2.29-.29,0-.58-.02-.86-.08-.62-.12-1.59-.77-2.58-1.59-1.3-1.08-2.63-2.46-3.21-3.33.42-.23,1.23-.61,1.25-.14.03.63.69,2.01,1.86,2.43.49.18,1.2-.78,1.45-.58.24.21.51.66,1.51.7.16,0,.33.04.5.08.57.15,1.2.47,1.58.68.22.13.36.22.36.22,0,0,1.04-.08,1.8-.67"/>
          <path class="cls-2" d="m13.72,13.9s-.1.67.14,1.22c-.36-.04-.66-.1-.87-.15-.31-.36-.55-.69-.71-.95l1.44-.12Z"/>
          <path class="cls-6" d="m21,18.92c-.86.41-1.89.56-2.85.37-1.11-.22-3.01-1.91-3.56-2.42-1.14-1.05-2.39-2.42-2.63-3.12-.07-.2-.06-.36.04-.47.34-.39,1.66-1.7,4.21-2.11,1.34-.22,2.74-.09,3.85.35,1.44.58,2.42,1.67,2.84,3.18.44,1.59-.09,2.65-.61,3.26-.34.4-.79.72-1.29.96Zm-8.74-5.4s0,.12.17.41c.41.69,1.49,1.88,2.68,2.94,1.31,1.17,2.47,1.94,3.1,2.07,1.39.28,2.97-.23,3.82-1.22.67-.78.86-1.79.54-2.93-.83-3.02-3.91-3.65-6.29-3.26-2.43.39-3.69,1.62-4.02,2Z"/>
          <path class="cls-11" d="m10.28,5.15c.71-1.7,2.34-3.13,2.83-2.93.62.25,1.09,2.16,1.04,3.55"/>
          <path class="cls-11" d="m14.15,5.77l-.73-.12-3.14-.5c.57-1.36,1.73-2.55,2.42-2.87.17-.08.31-.1.41-.06.62.25,1.09,2.16,1.04,3.55"/>
          <path class="cls-3" d="m13.42,5.66l-3.14-.5c.57-1.36,1.73-2.55,2.42-2.87.26.21,1.11,1.17.72,3.37"/>
          <path class="cls-6" d="m14.23,5.94s-.05.02-.08.01c-.09,0-.17-.1-.16-.19.03-.66-.07-1.46-.26-2.15-.22-.79-.49-1.15-.66-1.22-.12-.05-.57.14-1.16.72-.61.6-1.15,1.37-1.46,2.12-.04.09-.14.13-.22.08-.09-.04-.13-.15-.09-.24.33-.79.89-1.6,1.53-2.23.3-.3,1.06-.97,1.51-.79.78.31,1.21,2.42,1.16,3.73,0,.07-.04.12-.1.15Z"/>
          <path class="cls-1" d="m12.73,2.88c.2.01.46.49.51,1.27.03.49,0,.96-.11,1.18-.4-.1-1.37-.28-2.37-.42.56-1.09,1.64-2.06,1.96-2.04"/>
          <path class="cls-5" d="m13.13,5.33c-.4-.1-1.37-.28-2.37-.42,0-.02.02-.03.03-.05.15-.28.33-.55.53-.8.54-.68,1.16-1.18,1.4-1.19,0,0,0,0,.01,0,.2.01.46.49.51,1.27.03.49,0,.96-.11,1.18"/>
          <g class="cls-14">
            <path class="cls-6" d="m13.13,5.33c-.4-.1-1.37-.28-2.37-.42,0-.02.02-.03.03-.05.02-.04.04-.07.06-.11.13-.24.28-.48.44-.71,0,0,.02.01.03.02.21.13.56.28.96.07.51-.27.49-.86.44-1.25,0,0,0,0,.01,0,.2.01.46.49.51,1.27.03.49,0,.96-.11,1.18"/>
          </g>
          <path class="cls-10" d="m13.21,5.5s-.07.02-.11.01c-.22-.05-.58-.13-.97-.2-.06-.01-.12-.06-.14-.12-.12-.35-.15-.6-.08-.77.08-.2.2-.26.29-.28.1-.02.19,0,.28.05.02-.07.05-.13.1-.19.05-.05.14-.11.29-.1.22.02.45.27.54.45.01.03.02.05.02.08,0,.32-.01.74-.14.99-.02.03-.04.06-.08.08Zm-.93-.53c.28.05.54.1.74.15.04-.15.06-.38.06-.65-.07-.11-.18-.2-.23-.21-.02,0-.02,0-.02,0,0,0-.04.03-.02.22,0,.04,0,.15-.09.2-.06.03-.14.02-.19-.03,0,0,0,0-.02-.01-.12-.12-.2-.15-.23-.15-.01,0-.03.02-.05.07,0,.02-.04.12.05.4Z"/>
          <path class="cls-6" d="m13.23,5.54l-.12-.03c-.36-.09-1.32-.28-2.35-.41l-.26-.03.12-.24c.57-1.11,1.69-2.15,2.12-2.13h0c.34.02.62.63.68,1.45.02.34.04.96-.13,1.28l-.06.12Zm-2.18-.76c.83.12,1.58.26,1.98.35.05-.21.07-.56.04-.97-.05-.7-.26-1.06-.34-1.1-.21,0-1.11.76-1.68,1.72Zm1.68-1.72h0s0,0,0,0Z"/>
          <path class="cls-2" d="m13.13,5.33c-.2-.05-.55-.12-.98-.2-.08-.23-.14-.49-.08-.64.16-.41.55.02.57.03.01,0-.08-.47.23-.44.12.01.31.19.39.35,0,.38-.03.72-.12.9"/>
          <path class="cls-6" d="m13.23,5.54l-.12-.03c-.22-.05-.58-.13-.97-.2l-.1-.02-.04-.1c-.12-.35-.15-.6-.08-.77.08-.2.2-.26.29-.28.1-.02.19,0,.28.05.02-.07.05-.14.1-.19.05-.05.14-.11.28-.1.22.02.45.27.54.45l.02.04v.04c0,.32-.01.74-.14.99l-.06.12Zm-.95-.56c.28.05.54.1.74.15.04-.15.06-.38.06-.65-.07-.11-.19-.2-.23-.21-.02,0-.02,0-.02,0,0,0-.04.03-.02.23,0,.04,0,.14-.09.2l-.1.05-.09-.08s0,0-.02-.01c-.12-.12-.21-.15-.24-.15-.01,0-.03.03-.05.07,0,.02-.04.12.05.41Z"/>
          <path class="cls-11" d="m15.43,5.24c1.55-.75,3.22-.94,3.73-.41.4.42-.03,2.27-1.71,4.92"/>
          <path class="cls-11" d="m17.46,9.75l-2.02-4.51s.03-.01.04-.02c1.53-.73,3.19-.91,3.69-.39.06.06.1.16.13.29.11.72-.42,2.39-1.83,4.63"/>
          <path class="cls-11" d="m17.52,9.64s-.04.07-.07.11l-.63-1.41-1.39-3.11s.03-.01.04-.02c1.53-.73,3.19-.91,3.69-.39.06.06.1.16.13.29,0,0,0,0,0,0,.11.71-.4,2.34-1.77,4.52"/>
          <g class="cls-13">
            <path class="cls-5" d="m19.29,5.12s0,0,0,0c-.48-.58-2.16-.5-3.68.39l-.13-.28c1.53-.73,3.19-.91,3.69-.39.06.06.1.16.13.29"/>
          </g>
          <path class="cls-3" d="m17.52,9.64l-.7-1.3c.06-.53.21-1.28.63-1.86.61-.85,1.35-1.67,1.83-1.35.11.71-.4,2.34-1.77,4.52"/>
          <path class="cls-6" d="m17.53,9.92c-.05.03-.12.02-.17-.02-.08-.06-.1-.17-.05-.26,1.75-2.77,1.99-4.42,1.73-4.69-.39-.41-1.94-.33-3.53.45h0c-.09.04-.19,0-.23-.09-.04-.09,0-.2.08-.24.02,0,.04-.02.06-.03,1.43-.68,3.25-.99,3.87-.34.56.58-.13,2.7-1.68,5.15-.02.03-.04.05-.07.06Z"/>
          <path class="cls-11" d="m18.01,7.95c.79,2.06.34,4.61-1.06,5.87-1.05.96-2.81,1.63-5.88.06-2.18-1.11-3.44-2.67-3.57-4.2-.11-1.32.81-1.87.81-1.87.43-1.11,1.8-3.4,4.14-3.5,1.15-.04,2.48.36,3.8,1.45"/>
          <path class="cls-11" d="m18.01,7.95c.58,1.51.49,3.28-.14,4.61-.23.49-.54.92-.91,1.26-1.05.95-2.81,1.63-5.88.06-2.18-1.11-3.44-2.67-3.57-4.2-.1-1.25.72-1.82.8-1.87,0,0,0,0,0,0,.43-1.11,1.8-3.4,4.14-3.5,1.15-.04,2.48.36,3.8,1.45l1.75,2.19Z"/>
          <path class="cls-1" d="m17.87,12.56c-.23.49-.54.92-.91,1.26-1.05.95-2.81,1.63-5.88.06-2.18-1.11-3.44-2.67-3.57-4.2-.1-1.25.72-1.82.8-1.87.69.24,1.28,1.25,1.86,1.21.5-.03.8-.67,1.64-.2.84.47.99,1.55,1.94,1.94.92.38,1.42-.23,2.7.31.38.16,1.08.86,1.42,1.49"/>
          <path class="cls-5" d="m17.87,12.56c-.13.29-.29.55-.48.79-.13.17-.28.33-.43.47-1.05.95-2.81,1.63-5.88.06-1.91-.98-3.12-2.29-3.47-3.64-.05-.19-.08-.38-.1-.56-.1-1.25.72-1.82.8-1.87.69.24,1.28,1.25,1.86,1.21.5-.03.8-.67,1.64-.2.84.47.99,1.55,1.94,1.94.92.38,1.42-.23,2.7.31.38.16,1.08.86,1.42,1.49"/>
          <g class="cls-14">
            <path class="cls-6" d="m17.39,13.35c-.13.17-.28.33-.43.47-1.05.96-2.81,1.63-5.88.06-1.91-.98-3.12-2.29-3.47-3.64,1.1,1.28,2.14,1.78,3.7,2.37,1.44.55,3.36,2.12,6.08.73"/>
          </g>
          <path class="cls-4" d="m14.28,11.68c-.12.53.38,1.15,1.12,1.37.74.22,1.45-.03,1.57-.56.12-.53-.38-1.15-1.12-1.37-.74-.22-1.45.03-1.57.56"/>
          <path class="cls-4" d="m8.74,8.78c-.11.45-.63.7-1.23.63.02-1.05.7-1.54.8-1.61.02,0,.03.01.05.02.3.28.46.63.38.96"/>
          <path class="cls-5" d="m12.25,9.96c-.17.23-.37.34-.65.3-.31-.05-.43-.35-.49-.57-.09.14-.28.21-.44.13-.33-.14-.29-.65-.29-.65,0,0,.41-.41,1.08-.13.67.28.79.91.79.91"/>
          <path class="cls-6" d="m12.25,9.96c-.05.12-.13.24-.25.32-.06.04-.13.07-.2.08-.07.02-.14.02-.22.01-.08,0-.16-.02-.23-.07-.07-.04-.13-.11-.18-.17-.09-.13-.15-.27-.19-.41l.23.04c-.04.06-.09.12-.14.15-.06.04-.12.06-.19.07-.07,0-.14,0-.2-.03-.02,0-.03-.01-.05-.02-.02,0-.03-.02-.04-.02-.03-.02-.06-.04-.08-.06-.05-.05-.09-.1-.11-.16-.03-.06-.04-.12-.05-.18,0-.06,0-.12,0-.17,0-.06.01-.11.03-.16.02.11.05.21.09.3.04.09.1.16.16.2.03.02.07.04.1.03.03,0,.07,0,.1-.01.06-.02.13-.05.16-.1l.17-.22.06.27c.03.12.07.23.14.31.03.04.07.07.11.1.04.03.08.05.13.07.11.03.22.04.32,0,.11-.03.21-.1.31-.18"/>
          <path class="cls-6" d="m11.23,9.23c-.09-.04-.09.21-.21.38-.05.07.25.25.22.1-.07-.33.11-.43-.01-.48"/>
          <g class="cls-14">
            <path class="cls-6" d="m11.5,10.02c-.16-.08-.26-.46-.18-.61.06-.11.27-.13.25-.03-.19.66.5.59.5.59,0,0-.34.17-.57.05"/>
          </g>
          <g class="cls-14">
            <path class="cls-6" d="m10.68,9.63c.19.13.38-.2.44-.35.05-.11-.03-.18-.08-.1-.33.59-.57.04-.57.04,0,0,.02.29.21.41"/>
          </g>
          <path class="cls-6" d="m10.84,8.76c-.05.18.09.41.21.55.08.1.21.15.33.12.17-.04.41-.13.46-.31.08-.29-.92-.66-1.01-.37"/>
          <g class="cls-12">
            <path class="cls-5" d="m11.1,8.79s.05.09.1.13c.03.03.08.04.12.04.06,0,.14,0,.15-.03.02-.05-.36-.19-.37-.14"/>
          </g>
          <path class="cls-6" d="m18.01,7.95c.11.19.2.4.28.61.07.21.13.43.17.65.08.44.1.89.07,1.34-.03.45-.1.89-.22,1.31-.06.21-.14.42-.22.62-.09.2-.19.4-.3.59-.11.19-.24.37-.38.53-.14.17-.3.32-.46.46-.33.28-.7.5-1.1.65-.4.15-.82.23-1.25.26-.43.02-.85-.02-1.27-.11-.42-.09-.83-.21-1.23-.36-.4-.15-.79-.33-1.17-.53-.76-.4-1.49-.89-2.12-1.52-.31-.31-.6-.66-.84-1.05-.24-.39-.42-.81-.52-1.26-.05-.23-.08-.45-.08-.69,0-.12,0-.23.03-.35.02-.11.04-.23.08-.34.07-.22.17-.43.3-.61.07-.09.14-.18.22-.26.04-.04.08-.08.12-.11.02-.02.04-.04.07-.05l.03-.03h.02s0-.02,0-.02h0s-.02,0-.03.03h0s-.02.03-.02.03c.15-.41.34-.79.56-1.15.22-.36.47-.7.76-1.01.29-.31.61-.59.96-.82.35-.23.74-.41,1.15-.51.2-.05.41-.09.62-.11.21-.02.42-.02.63,0,.42.03.84.11,1.24.25.4.13.8.31,1.16.53.18.11.36.24.52.38.16.14.32.29.46.46-.19-.1-.37-.21-.55-.31-.18-.1-.36-.2-.55-.29-.18-.09-.37-.18-.55-.26-.19-.08-.38-.15-.57-.21-.38-.12-.78-.19-1.17-.2-.39-.02-.78.02-1.16.12-.37.1-.73.26-1.06.48-.33.21-.63.47-.9.76-.27.29-.52.61-.74.95-.11.17-.21.34-.31.52-.1.18-.19.36-.26.55v.02s-.02.01-.02.01h0s-.05.04-.04.04h0s0,0,0,0h-.01s-.03.03-.03.03c-.02.01-.04.03-.06.04-.04.03-.07.06-.11.1-.07.07-.13.14-.19.22-.11.16-.2.34-.26.53-.03.1-.05.19-.07.29-.01.1-.02.2-.02.3,0,.2.02.41.07.62.09.41.26.8.48,1.16.22.36.49.69.79.99.6.6,1.31,1.08,2.05,1.47.74.39,1.52.71,2.33.87.4.08.81.11,1.21.09.4-.02.79-.1,1.16-.25.37-.15.71-.36,1.01-.62.3-.26.56-.57.77-.91.21-.35.37-.73.49-1.13.12-.4.2-.81.23-1.24.03-.42.02-.85-.02-1.27-.02-.21-.05-.43-.08-.64-.03-.21-.08-.43-.12-.65"/>
          <path class="cls-6" d="m14.85,10.44c0-.16,0-.31-.03-.46-.02-.14-.05-.28-.09-.4-.05-.12-.11-.21-.19-.29-.04-.04-.09-.07-.14-.1-.05-.03-.1-.06-.16-.08-.11-.04-.22-.06-.33-.04-.12,0-.24.04-.35.1-.12.05-.24.12-.35.2-.11.08-.23.17-.34.27.04-.15.12-.29.2-.42.09-.13.19-.25.32-.34.13-.1.28-.17.45-.21.17-.04.35-.03.52.03.09.03.17.07.24.11.08.05.15.11.22.18.07.07.12.15.16.24.04.09.07.18.09.27.03.18.02.35-.02.51-.04.16-.11.3-.2.43"/>
          <path class="cls-6" d="m9.15,7.76c0-.14.05-.28.11-.41.06-.13.15-.25.27-.34.12-.09.26-.17.43-.18.08,0,.16,0,.24.01.08.02.16.04.24.08.08.04.15.09.21.15.06.06.11.13.16.2.04.07.07.15.09.23.02.08.04.15.04.23.01.15,0,.3-.04.43-.03.14-.08.27-.16.38-.01-.14-.02-.27-.04-.4-.02-.13-.04-.25-.08-.36-.02-.06-.04-.11-.06-.16-.02-.05-.05-.09-.08-.13-.06-.08-.13-.14-.21-.17-.08-.04-.18-.06-.27-.05-.09,0-.18.02-.28.07-.09.04-.19.1-.29.18-.1.07-.19.16-.29.25"/>
          <path class="cls-5" d="m15.71,8.07c.06-.07-.14-.95-.68-.92-.14,0-.29.25-.21.42.13.29.83.56.89.5"/>
          <path class="cls-5" d="m10.15,6c-.02-.07.46-.7.9-.38.13.1.14.35-.04.44-.36.16-.83.02-.86-.06"/>
          <path class="cls-1" d="m18.87,5.19c-.4-.25-1.73.16-2.07.57-.26.31.45.6,1.16,2,.64-.67,1.08-2.46.91-2.57"/>
          <path class="cls-5" d="m17.96,7.76s0-.01-.01-.02c-.71-1.38-1.4-1.67-1.15-1.98.33-.41,1.67-.82,2.07-.57.02.01.03.06.04.12.02.43-.38,1.87-.95,2.45"/>
          <g class="cls-14">
            <path class="cls-6" d="m18.07,7.59c-.04.05-.08.1-.12.15-.71-1.38-1.4-1.67-1.15-1.98.33-.41,1.67-.82,2.07-.57.02.01.03.06.04.12,0,.05,0,.09,0,.11-.31-.05-.84-.05-1.1.41-.33.61.17,1.09.26,1.75"/>
          </g>
          <path class="cls-10" d="m18.04,7.92s-.06.02-.1.01c-.05-.01-.1-.05-.13-.1-.33-.65-.65-1.04-.89-1.33-.27-.33-.48-.59-.25-.87.21-.26.7-.47,1.09-.58.25-.07.87-.22,1.19-.02h0c.07.04.11.11.12.21.06.44-.38,2-.99,2.64-.01.01-.03.03-.05.03Zm-.68-2.33c-.19.09-.34.19-.42.29-.02.02-.02.02,0,.06.04.08.13.19.25.33.21.25.5.62.81,1.17.46-.64.77-1.82.75-2.12-.26-.1-.92.05-1.38.27Z"/>
          <path class="cls-6" d="m18.04,7.92s-.06.02-.1.01c-.05-.01-.1-.05-.13-.1-.28-.54-.55-.91-.76-1.18-.04-.06-.09-.11-.12-.15-.27-.33-.48-.59-.25-.87.09-.11.24-.22.44-.33.52-.27,1.45-.52,1.84-.28.07.04.11.11.12.21.06.44-.38,2-.99,2.64-.01.01-.03.03-.05.03Zm-.67-2.33s-.07.03-.1.05c-.16.08-.28.17-.34.24-.02.02-.02.02,0,.06.04.08.13.19.25.33.04.05.08.1.13.16.19.24.43.56.68,1.01.46-.64.77-1.82.75-2.12-.25-.09-.88.03-1.37.27Z"/>
          <path class="cls-6" d="m17.59,6.55s-.01.02-.02.04c0,.01-.02.02-.03.03-.02.02-.05.04-.07.05-.05.02-.1.03-.13.03-.04,0-.06,0-.08,0-.02,0-.03,0-.03,0l-.15-.05c-.07-.09-.15-.19-.23-.28-.04-.05-.08-.1-.12-.15-.04-.06-.08-.12-.1-.21-.01-.04-.02-.1-.01-.15,0-.03.01-.05.02-.08,0-.01.01-.02.02-.03,0-.01.01-.02.02-.03l.02-.03h0s0-.02,0-.02c.01-.01.02-.03.04-.04.02-.02.05-.05.07-.07.1-.08.2-.15.31-.2.03-.01.05-.02.08-.01h0c.08.01.15.03.23.06.04.02.08.04.11.06.04.03.08.06.11.11,0,.01.02.03.02.04,0,.01.02.03.02.04,0,.02.02.05.02.07,0,.05.01.11,0,.17-.02.06-.05.11-.1.14-.04.03-.09.05-.13.05-.04,0-.08,0-.12,0-.04,0-.07,0-.11,0-.02,0-.04,0-.05,0,0,0,0,0,0,0h0s0,0,.01,0c0,0,.02,0,.02-.02,0,0,.01-.02.01-.02,0-.01,0-.03,0-.04,0,0,0,0,0,0h0s0,0,0,0h0s0,0,0,0c0,0,0,0,0,0,0,0,0,0,0,0,0,0,0,0,.02.02.02.02.05.05.08.07.06.05.12.09.18.16.03.04.06.08.07.14,0,.03.01.06.01.1,0,.04-.01.07-.03.1m-.26-.15s0,0,0,0c0,0,0,0,0,0,0-.01,0-.03,0-.06-.01-.05-.04-.12-.08-.17-.02-.03-.04-.05-.07-.08,0,0-.01-.01-.02-.02,0,0,0,0,0,0h0s0,0,0,0h0s0-.01,0-.01c0,0,0,0,0,0,0,0,0,0,0-.01,0-.01,0-.03,0-.04,0,0,0-.02.01-.03,0,0,.02-.01.02-.02,0,0,0,0,.01,0h0s0,0,0,0c0,0,.01,0,.02,0h.05c.06,0,.12,0,.17-.03.02-.01.04-.03.04-.04,0-.01,0-.02,0-.03,0-.01,0-.02-.01-.04,0,0,0-.02-.01-.03,0,0,0,0,0,0,0,0,0,0,0,0-.02-.02-.06-.05-.11-.07-.05-.02-.1-.04-.16-.05h.08c-.1.04-.19.09-.26.16-.02.02-.04.03-.05.05,0,0-.02.02-.02.03h0s0,.01,0,.01c0,0,0,0,0,0-.01.03-.01.02,0,.05,0,.03.03.07.06.11.03.04.07.09.1.14.07.09.15.19.23.28l-.15-.05c.05-.02.09-.01.12-.01.03,0,.05,0,.07,0,.02,0,.02,0,.02,0,0,0-.01.01-.01.01"/>
        </g>
        <g>
          <path class="cls-1" d="m12.94,19.44s1.2.61,1.96.99c1.47.74,4.11,2.07,4.52,3.34.56,1.78,1.2,2.57,2.81,2.71,1.4.12,2.92-1.74,1.9-3.79,2.09-.47,2.42-2.94,1.43-4.03-1.14-1.26-2.11-1.28-3.72-.59-1.15.49-2.33-.11-3.8-.86-.76-.38-6.18-3.13-6.18-3.13,0,0-1.2-.61-1.96-.99-1.47-.74-2.65-1.33-3.05-2.61-.56-1.78-1.2-2.57-2.81-2.71-1.4-.12-2.92,1.74-1.9,3.79C.04,12.03-.28,14.5.71,15.59c1.14,1.26,2.11,1.28,3.72.59,1.15-.49,2.33.11,3.8.86.76.38,4.72,2.4,4.72,2.4"/>
          <path class="cls-1" d="m24.12,22.7c1.02,2.04-.5,3.91-1.9,3.79-1.62-.14-2.25-.93-2.81-2.71-.4-1.28-3.05-2.6-4.52-3.34-.76-.38-1.96-.99-1.96-.99,0,0-3.96-2.01-4.72-2.4-1.47-.74-2.64-1.35-3.8-.86-1.61.68-2.58.66-3.72-.59-.99-1.09-.66-3.56,1.43-4.03-1.02-2.04.5-3.91,1.9-3.79,1.62.14,2.25.93,2.81,2.71.35,1.11,1.28,1.7,2.47,2.32.19.1.38.19.57.29.76.38,1.96.99,1.96.99,0,0,5.43,2.75,6.18,3.13,1.04.53,1.93.98,2.78,1.03.35.02.68-.03,1.02-.17,1.61-.68,2.58-.66,3.72.59.99,1.09.66,3.56-1.43,4.03"/>
          <path class="cls-1" d="m25.6,21.75c-.32.44-.81.8-1.47.94,1.02,2.04-.5,3.91-1.9,3.79-1.62-.14-2.25-.93-2.81-2.71-.4-1.28-3.05-2.6-4.52-3.34-.76-.38-1.96-.99-1.96-.99,0,0-3.96-2.01-4.72-2.4-1.47-.74-2.64-1.35-3.8-.86-1.61.68-2.58.66-3.72-.59-.99-1.09-.66-3.56,1.43-4.03-1.02-2.04.5-3.91,1.9-3.79.47.04.87.14,1.19.3.79.39,1.23,1.15,1.62,2.41.35,1.11,1.28,1.7,2.47,2.32.18.1.38.19.57.29.76.38,1.95.99,1.95.99,0,0,5.43,2.75,6.18,3.13,1.04.53,1.93.98,2.78,1.03.35.02.68-.03,1.02-.17,1.61-.68,2.58-.66,3.72.59.68.74.74,2.13.05,3.08"/>
          <path class="cls-1" d="m25.6,21.75c-.32.44-.81.8-1.47.94,1.02,2.04-.5,3.91-1.9,3.79-1.62-.14-2.25-.93-2.81-2.71-.4-1.28-3.05-2.6-4.52-3.34-.76-.38-1.96-.99-1.96-.99,0,0-3.96-2.01-4.72-2.4-1.47-.74-2.64-1.35-3.8-.86-1.61.68-2.58.66-3.72-.59-.99-1.09-.66-3.56,1.43-4.03-1.02-2.04.5-3.91,1.9-3.79.47.04.87.14,1.19.3.79.39,1.23,1.16,1.62,2.41.35,1.11,1.28,1.7,2.47,2.32.19.1.38.19.57.29.76.38,1.96.99,1.96.99,0,0,1.9.96,3.61,1.83,1.18.6,2.27,1.15,2.58,1.31,1.04.53,1.93.98,2.78,1.03.35.02.68-.03,1.02-.17.15-.06.29-.12.43-.17,1.36-.5,2.25-.38,3.29.77.68.74.74,2.13.05,3.08"/>
          <path class="cls-7" d="m19.73,23.67c-.41-1.3-2.51-2.46-4.63-3.53l-.07-.04c-.76-.38-1.96-.99-1.96-.99-.04-.02-3.97-2.02-4.72-2.4l-.03-.02c-1.48-.75-2.75-1.4-4.04-.85,0,0-.04-2.55,7,1.09,9.4,4.86,8.45,6.73,8.45,6.73"/>
          <path class="cls-7" d="m22.26,17.9c.57,1.24.66,3.02-1.06,3.74-1.78.74-2.37-.99-2.37-.99,0,0,.71-.74.71-.74l-1.33-2.16-1.27-.57c-1.26,1.53-2.89,1.92-3.03,1.7-.67-1.05.36-2.15,1.53-2.96,1.18.6,2.27,1.15,2.58,1.31,1.04.53,1.93.98,2.78,1.03.35.02.68-.03,1.02-.17.15-.06.29-.12.43-.17"/>
          <path class="cls-7" d="m22.31,22.42s.22-.91,1.03-1.35c.77-.41,1.77-.06,1.6.43-.32.92-1.68.34-2.64.92"/>
          <path class="cls-7" d="m20.25,24.46s.62,1.33,1.66,1.44c1.2.12,1.88-.44,1.71-.99-.17-.55-2.34.4-3.37-.45"/>
          <path class="cls-7" d="m2.32,10.3c.3-.38,1.59.18,1.72.74.16.68-.05,1.07.15,1.36-1.12.05-2.35-1.5-1.87-2.11"/>
          <path class="cls-7" d="m2.06,11.98s-1.14.36-.86,1.09c.31.8,2.19.3,2.44,0,.26-.3-1.21-.32-1.58-1.09"/>
          <path class="cls-6" d="m23.17,26.48c-.31.15-.64.21-.96.19-1.79-.16-2.43-1.12-2.97-2.84-.37-1.18-2.96-2.49-4.35-3.19l-2.03-1.03s0,0,0,0c-.04-.02-3.97-2.02-4.72-2.4l-.03-.02c-1.42-.72-2.55-1.29-3.62-.83-1.56.66-2.64.75-3.91-.64-.53-.58-.72-1.53-.49-2.41.24-.92.89-1.59,1.79-1.86-.39-.92-.34-1.89.15-2.69.47-.76,1.25-1.21,2.01-1.15,1.79.16,2.43,1.12,2.97,2.84.37,1.19,1.5,1.76,2.92,2.48l1.99,1.01s5.43,2.75,6.18,3.13l.03.02c1.42.72,2.55,1.29,3.62.83,1.56-.66,2.64-.75,3.91.64.53.58.72,1.53.49,2.41-.24.92-.89,1.59-1.79,1.86.39.92.34,1.89-.15,2.69-.27.44-.64.77-1.05.96Zm-10.17-7.2l2.03,1.03c1.54.78,4.12,2.08,4.54,3.42.58,1.83,1.22,2.46,2.66,2.58.63.05,1.3-.34,1.7-.99.46-.75.47-1.67.04-2.53-.02-.05-.03-.11,0-.16.02-.05.06-.09.11-.1.88-.2,1.52-.81,1.75-1.67.2-.76.04-1.57-.4-2.06-1.01-1.12-1.87-1.25-3.53-.55-1.22.51-2.4-.09-3.9-.85l-.03-.02c-.76-.38-6.18-3.13-6.18-3.13l-1.99-1.01c-1.5-.76-2.69-1.36-3.11-2.7-.58-1.83-1.22-2.46-2.66-2.58-.63-.05-1.3.34-1.7.99-.46.75-.47,1.67-.04,2.53.02.05.03.11,0,.16-.02.05-.06.09-.11.1-.88.2-1.52.81-1.75,1.67-.2.76-.04,1.57.4,2.06,1.01,1.12,1.87,1.25,3.53.55,1.22-.51,2.4.09,3.9.85l.03.02c.75.38,4.68,2.38,4.72,2.4h0Z"/>
          <path class="cls-6" d="m2.25,11.48c.19.35.49.64.83.86.34.22.73.35,1.13.41-.4,0-.81-.1-1.19-.28-.38-.18-.73-.46-1-.83l.23-.16Z"/>
          <path class="cls-6" d="m24.14,22.84c-.17,0-.33-.02-.48-.04-.16-.02-.31-.05-.46-.07-.15-.02-.31-.04-.46-.03-.15,0-.3.03-.44.12.12-.1.27-.16.43-.19.16-.03.31-.04.47-.04.16,0,.31,0,.47,0,.15,0,.3,0,.45-.03l.03.3Z"/>
          <path class="cls-11" d="m17.86,14.75s-.84,2.55-3.62,3.44c-1.66.53-2.27-.6-2.2-1.32.06-.72.77-1.18,1.47-1.58.01,0,.03-.02.04-.03.02,0,.03-.02.05-.03.12-.07.24-.14.35-.2,0,0,0,0,.01,0,.02-.01.04-.03.07-.04h0s.44.15,1.16.23c.18.02.38.03.6.04,1.1.03,2.07-.49,2.07-.49"/>
          <path class="cls-3" d="m17.54,15.44c-.42.76-1.31,1.97-2.92,2.61-.12.05-.25.09-.38.14-1.66.53-2.27-.6-2.2-1.32.02-.19.08-.36.17-.52.03.31.14.77.55,1.22.56.61,3.2,0,4.78-2.13"/>
          <path class="cls-2" d="m14.64,17.69c.02.18,0,.35-.02.5-.13.05-.26.1-.4.14-1.75.56-2.38-.63-2.31-1.39,0-.05.01-.1.02-.15,0,0,0-.02,0-.02,0-.03.01-.06.02-.09,0-.02.01-.03.02-.05,0-.03.02-.05.03-.08,0,0,0-.01,0-.02,0-.01.01-.03.02-.04.02-.03.04-.07.06-.1.03.33.15.81.58,1.28.28.31,1.06.32,1.97.01"/>
          <path class="cls-3" d="m15.2,15.21c-.63.11-1.24.11-1.69.08,0,0,0,0,0,0,.02,0,.03-.02.05-.03.02,0,.03-.02.05-.03.12-.07.24-.14.35-.2,0,0,0,0,.01,0,.02-.01.04-.03.07-.04h0s.44.15,1.16.23"/>
          <path class="cls-5" d="m14.35,16.61c.28.54.35,1.04.27,1.44-.12.05-.25.09-.38.14-1.66.53-2.27-.6-2.2-1.32.05-.55.47-.94.97-1.28.38,0,.91.18,1.34,1.02"/>
          <g class="cls-14">
            <path class="cls-6" d="m14.64,17.58c.01.17,0,.33-.02.48-.12.05-.25.09-.38.14-1.66.53-2.27-.6-2.2-1.32,0-.05.01-.09.02-.14,0,0,0-.02,0-.02,0-.03.01-.06.02-.08,0-.02.01-.03.02-.05,0-.03.02-.05.03-.08,0,0,0-.01,0-.02,0-.01.01-.03.02-.04.02-.03.03-.06.05-.1.03.31.14.77.55,1.22.27.29,1.01.31,1.88.01"/>
          </g>
          <path class="cls-6" d="m14.03,14.98c-.17.16-.36.3-.54.44-.18.13-.37.26-.55.4-.18.13-.34.28-.48.44-.13.17-.23.35-.26.56-.03.2,0,.42.08.61.08.2.21.37.37.49.16.12.36.19.56.22.2.03.42.01.63-.03.11-.02.21-.05.31-.08.1-.03.21-.07.31-.11.21-.08.41-.17.61-.27.39-.2.76-.45,1.1-.75.17-.15.33-.31.48-.47.15-.17.3-.34.44-.52.28-.36.53-.74.75-1.16-.05.24-.13.46-.23.68-.1.22-.21.43-.34.63-.25.4-.56.76-.91,1.08-.35.32-.73.59-1.14.82-.1.06-.21.11-.31.16-.11.05-.21.1-.32.14-.11.04-.22.08-.33.12-.11.04-.23.07-.35.09-.24.05-.48.07-.74.04-.25-.03-.51-.12-.73-.29-.22-.16-.39-.4-.49-.66-.05-.13-.08-.26-.1-.4-.02-.14-.01-.28.01-.41.02-.14.07-.26.13-.38.06-.12.13-.22.21-.32.16-.19.35-.34.54-.48.19-.13.4-.24.61-.34.21-.09.42-.18.64-.25"/>
          <path class="cls-11" d="m21.04,17.08c.13.22.34.59.48,1.08.1.33.17.72.16,1.14,0,.44-.16,1.26-.67,1.65-.61.46-1.37.56-1.87.13-.64-.55-.36-1.48-.2-1.82,0,0,0-.02.01-.03-.59-.47-1.21-1.92-1-2.87.41-1.81,2.07-2.34,2.81-2.27l.27,2.99Z"/>
          <path class="cls-11" d="m20.96,16.22l.08.86c.13.22.34.59.48,1.08.1.33.17.72.16,1.14,0,.44-.16,1.26-.67,1.65-.61.45-1.37.56-1.87.13-.15-.13-.25-.27-.31-.43-.21-.52-.02-1.13.11-1.39,0,0,0-.02.01-.03-.59-.47-1.21-1.92-1-2.87.41-1.81,2.07-2.34,2.81-2.27l.19,2.13Z"/>
          <path class="cls-3" d="m21.04,17.08c.13.22.34.59.48,1.08.1.33.17.72.16,1.14,0,.44-.16,1.26-.67,1.65-.61.45-1.37.56-1.87.13-.15-.13-.25-.27-.31-.43.36.28.9.5,1.51.18,1.07-.56.86-1.55.74-1.66-.24-.21-1.68.8-2.03.1.64.16,1.61-.3,1.69-.93.09-.71-.4-1.45.22-2.13l.08.86Z"/>
          <path class="cls-2" d="m21.52,18.16c.1.33.17.72.16,1.14,0,.44-.16,1.26-.67,1.65-.61.45-1.37.56-1.87.13-.13-.11-.22-.24-.29-.38,0-.02-.01-.03-.02-.05h0c.36.27.9.5,1.51.18,1.07-.56.86-1.55.74-1.66-.24-.2-1.65.77-2.01.13.34.11.86.16,1.48-.2.64-.38.85-.76.88-1.07.02.05.05.09.1.14"/>
          <path class="cls-5" d="m21.52,18.16c.1.33.17.72.16,1.14,0,.44-.16,1.26-.67,1.65-.61.46-1.37.56-1.87.13-.64-.55-.36-1.48-.2-1.82.33.14.9.25,1.6-.16.64-.38.85-.76.88-1.07.02.05.05.09.1.14"/>
          <g class="cls-14">
            <path class="cls-6" d="m21.52,18.16c.1.33.17.72.16,1.14,0,.44-.16,1.26-.67,1.65-.61.45-1.37.56-1.87.13-.13-.11-.22-.24-.29-.38,0-.02-.01-.03-.02-.05h0c.36.27.9.5,1.51.18,1.07-.56.86-1.55.74-1.66-.24-.2-1.65.77-2.01.13.34.11.86.16,1.48-.2.64-.38.85-.76.88-1.07.02.05.05.09.1.14"/>
          </g>
          <path class="cls-3" d="m19.14,19.04c.22.14.66.21.92-.03.41-.38-.72-2-1.35-1.49-.53.43.21,1.39.43,1.52"/>
          <path class="cls-6" d="m20.77,14.09c-.29.01-.56.09-.82.19-.13.05-.25.11-.38.18-.12.07-.24.14-.35.22-.44.33-.8.77-.99,1.3-.05.13-.09.27-.12.41-.03.13-.04.27-.04.41,0,.14.02.28.04.42.02.14.06.28.1.42.04.14.09.28.14.41.05.13.12.27.18.39.07.13.14.25.22.37.08.12.17.22.27.31h0c.06.05.07.13.04.19-.07.13-.12.29-.15.45-.03.16-.05.32-.04.47,0,.16.04.31.11.44.07.13.17.25.29.34.24.18.55.23.84.17.3-.05.58-.19.82-.38.22-.18.37-.47.46-.78.05-.15.08-.31.1-.47.01-.08.02-.16.02-.24,0-.08,0-.17,0-.25-.01-.33-.07-.66-.16-.99-.04-.16-.09-.33-.15-.49-.06-.16-.12-.33-.18-.49.45.54.74,1.24.79,1.97,0,.09.01.18.01.27,0,.09,0,.19-.02.28-.02.18-.06.36-.11.53-.05.17-.12.34-.22.5-.09.16-.21.3-.36.42-.04.03-.07.05-.11.08-.04.02-.07.05-.11.07-.07.04-.15.09-.23.12-.16.07-.33.13-.5.16-.18.03-.36.03-.54,0-.18-.03-.36-.11-.52-.23-.15-.12-.29-.27-.38-.45-.09-.18-.13-.38-.14-.57-.01-.19,0-.38.05-.56.04-.18.1-.35.18-.52l.04.19c-.07-.05-.13-.11-.18-.17-.06-.06-.11-.12-.16-.18-.1-.13-.19-.26-.26-.4-.08-.14-.15-.28-.21-.43-.06-.15-.12-.3-.16-.45-.09-.3-.15-.62-.15-.95,0-.16.02-.33.06-.49.04-.15.08-.3.14-.44.12-.29.27-.56.47-.79.19-.23.42-.43.67-.59.13-.08.26-.15.39-.2.14-.06.27-.1.42-.14.07-.02.14-.03.21-.04.07-.01.14-.02.22-.02.15,0,.29,0,.43.03"/>
          <path class="cls-6" d="m20.32,19.21c-.1.06-.21.11-.32.15-.11.04-.23.07-.35.09-.12.02-.25.02-.37,0h-.1s-.06-.03-.1-.04h-.05s-.03-.02-.05-.03l-.09-.04c-.08-.03-.12-.11-.09-.19.02-.08.1-.12.18-.09,0,0,.02,0,.03.01h.01s.07.05.07.05c.01,0,.02.01.03.02l.04.02s.05.02.07.03l.08.03c.1.03.22.06.33.06.11,0,.23,0,.34-.01.11-.02.23-.04.34-.08"/>
          <path class="cls-6" d="m19.99,19.87c.02.14.05.27.09.4.04.13.09.26.15.37.03.06.07.11.11.16.04.05.08.09.13.12.05.03.09.05.14.06.05,0,.1,0,.15,0l.03.3c-.08,0-.16-.01-.24-.04-.08-.03-.15-.08-.21-.13-.06-.06-.11-.12-.15-.19-.04-.07-.07-.14-.09-.2-.05-.14-.08-.28-.09-.42-.02-.14-.02-.28-.02-.42"/>
          <path class="cls-6" d="m19.32,20.01c0,.12-.02.24-.02.36,0,.12.03.23.06.34.04.11.09.2.16.29l.05.06.06.06s.02.02.03.03l.03.02.06.05-.18.22-.06-.08-.03-.04s-.02-.03-.03-.04l-.06-.08-.05-.09c-.06-.12-.1-.25-.12-.37-.02-.13-.02-.26,0-.38.02-.12.05-.24.09-.35"/>
          <path class="cls-6" d="m13.03,16.43c-.13.02-.26.06-.37.12-.11.06-.21.15-.28.25-.07.1-.12.22-.13.34-.01.12,0,.24.04.36l-.27.06c-.03-.16-.02-.33.02-.48.04-.15.13-.29.23-.39.11-.1.23-.17.36-.22.13-.04.27-.06.4-.06"/>
          <path class="cls-6" d="m13.41,17.3c-.04.12-.11.22-.2.31-.09.09-.19.17-.3.22-.12.06-.25.09-.39.08-.14-.01-.29-.08-.4-.17l.19-.22c.07.08.15.14.24.17.1.03.21.03.31,0,.11-.03.21-.08.31-.14.1-.07.18-.15.25-.25"/>
        </g>
      </g>
      <g>
        <path class="cls-5" d="m15.68,2.82c-.25-.18-.45-.44-.56-.76-.27-.78.1-1.61.83-1.86.73-.25,1.53.17,1.8.95.27.78-.1,1.61-.83,1.86-.2.07-.41.09-.61.06l-.52.42-.11-.67Z"/>
        <g class="cls-13">
          <path class="cls-5" d="m16.04.47c-.68.24-1.05.98-.87,1.71-.02-.05-.04-.1-.06-.15-.27-.78.1-1.61.83-1.86.73-.25,1.53.17,1.8.95.02.05.03.1.04.15-.32-.68-1.06-1.04-1.74-.8Z"/>
        </g>
        <path class="cls-6" d="m17.11,3.08s-.09.04-.14.06c-.2.07-.41.09-.61.07l-.48.39s-.08.03-.12.02c-.04-.02-.07-.06-.08-.1l-.1-.61c-.26-.2-.46-.47-.57-.79-.29-.84.11-1.75.9-2.02.79-.27,1.67.19,1.96,1.03.27.79-.06,1.64-.76,1.97Zm-.85-.12s.04-.01.07-.01c.19.03.38,0,.56-.05.66-.23,1-.99.75-1.7-.25-.71-.98-1.09-1.64-.86-.66.23-1,.99-.75,1.7.1.28.28.52.51.69.03.02.05.05.06.09l.07.45.35-.29s.01-.01.02-.01Z"/>
        <g class="cls-15">
          <path class="cls-6" d="m15.67,2.81c.49.15,1.03.06,1.44-.29.46-.39.65-1,.55-1.58.03.07.07.14.09.21.27.78-.1,1.61-.83,1.86-.2.07-.41.09-.61.06l-.52.42-.11-.67s0,0-.01,0Z"/>
        </g>
        <path class="cls-9" d="m15.86,1.42h0c.06-.17.24-.23.4-.17h.03s0-.02,0-.02c.06-.17.22-.27.38-.21h0c.16.07.25.25.19.42v.03s-.18.53-.18.53c-.01.04-.06.07-.1.05l-.51-.2h-.03c-.16-.08-.25-.26-.19-.43Z"/>
      </g>
    </g>
  </g>
</svg>